<?xml version="1.0" encoding="utf-8"?><svg xmlns="http://www.w3.org/2000/svg" xmlns:xlink="http://www.w3.org/1999/xlink"><symbol viewBox="0 0 16 16" id="add" xmlns="http://www.w3.org/2000/svg"><mask id="apath-1-inside-1_1_16678"><path d="M15.2818 9.36025H8.94222V15.7891H6.41234V9.36025H0.102539V7.06848H6.41234V0.609863H8.94222V7.06848H15.2818V9.36025Z"/></mask><path d="M15.2818 9.36025H8.94222V15.7891H6.41234V9.36025H0.102539V7.06848H6.41234V0.609863H8.94222V7.06848H15.2818V9.36025Z"/><path d="M15.2818 9.36025V13.4693H19.3908V9.36025H15.2818ZM8.94222 9.36025V5.2512H4.83317V9.36025H8.94222ZM8.94222 15.7891V19.8982H13.0513V15.7891H8.94222ZM6.41234 15.7891H2.30329V19.8982H6.41234V15.7891ZM6.41234 9.36025H10.5214V5.2512H6.41234V9.36025ZM0.102539 9.36025H-4.00651V13.4693H0.102539V9.36025ZM0.102539 7.06848V2.95943H-4.00651V7.06848H0.102539ZM6.41234 7.06848V11.1775H10.5214V7.06848H6.41234ZM6.41234 0.609863V-3.49919H2.30329V0.609863H6.41234ZM8.94222 0.609863H13.0513V-3.49919H8.94222V0.609863ZM8.94222 7.06848H4.83317V11.1775H8.94222V7.06848ZM15.2818 7.06848H19.3908V2.95943H15.2818V7.06848ZM15.2818 5.2512H8.94222V13.4693H15.2818V5.2512ZM4.83317 9.36025V15.7891H13.0513V9.36025H4.83317ZM8.94222 11.6801H6.41234V19.8982H8.94222V11.6801ZM10.5214 15.7891V9.36025H2.30329V15.7891H10.5214ZM6.41234 5.2512H0.102539V13.4693H6.41234V5.2512ZM4.21159 9.36025V7.06848H-4.00651V9.36025H4.21159ZM0.102539 11.1775H6.41234V2.95943H0.102539V11.1775ZM10.5214 7.06848V0.609863H2.30329V7.06848H10.5214ZM6.41234 4.71891H8.94222V-3.49919H6.41234V4.71891ZM4.83317 0.609863V7.06848H13.0513V0.609863H4.83317ZM8.94222 11.1775H15.2818V2.95943H8.94222V11.1775ZM11.1727 7.06848V9.36025H19.3908V7.06848H11.1727Z" mask="url(#apath-1-inside-1_1_16678)"/></symbol><symbol viewBox="0 0 16 9" id="arrow-down" xmlns="http://www.w3.org/2000/svg"><path d="M1.4209 1.25293L7.70325 7.53528L13.9856 1.25293" stroke-width="2.35588" stroke-linecap="round" stroke-linejoin="round"/></symbol><symbol viewBox="0 0 28 28" id="arrow-right" xmlns="http://www.w3.org/2000/svg"><path d="M6.55469 13.5469H22.3588" stroke-width="2.25773" stroke-linecap="round" stroke-linejoin="round"/><path d="M14.4561 5.64453L22.3581 13.5466L14.4561 21.4487" stroke-width="2.25773" stroke-linecap="round" stroke-linejoin="round"/></symbol><symbol viewBox="0 0 16 21" id="book-mark" xmlns="http://www.w3.org/2000/svg"><path d="M12.6161 0.88436C9.71458 0.397922 6.73665 0.397922 3.83508 0.88436C2.77504 1.06207 1.93085 1.87587 1.71831 2.93105C0.744596 7.76505 0.691467 12.7393 1.56171 17.593L1.91601 19.5691C2.02526 20.1785 2.7681 20.422 3.21691 19.9957L7.49357 15.9328C7.9038 15.5431 8.54743 15.5431 8.95766 15.9328L13.2343 19.9957C13.6831 20.422 14.426 20.1785 14.5352 19.5691L14.8895 17.593C15.7598 12.7393 15.7066 7.76505 14.7329 2.93105C14.5204 1.87587 13.6762 1.06207 12.6161 0.88436Z"/></symbol><symbol viewBox="0 0 11 22" id="facebook" xmlns="http://www.w3.org/2000/svg"><path fill-rule="evenodd" clip-rule="evenodd" d="M9.95256 10.6695H6.97166V21.338H2.52644V12.415V10.6695H0.43457V6.90414H2.52644V4.4462C2.52644 2.72041 3.36319 0.000976562 6.97166 0.000976562H10.2663V3.66174H7.913C7.54692 3.66174 6.97166 3.87094 6.97166 4.70768V6.90414H10.3186L9.95256 10.6695Z"/></symbol><symbol viewBox="0 0 22 19" id="heart" xmlns="http://www.w3.org/2000/svg"><path fill-rule="evenodd" clip-rule="evenodd" d="M0.0214844 6.66277C0.0214844 3.27527 2.99334 0.666992 6.48165 0.666992C8.2798 0.666992 9.86206 1.51012 10.9975 2.60107C12.1329 1.51012 13.7152 0.666992 15.5133 0.666992C19.0016 0.666992 21.9735 3.27527 21.9735 6.66277C21.9735 8.98325 20.9839 11.0239 19.6129 12.7488C18.2443 14.4707 16.4541 15.9322 14.74 17.1197C14.0852 17.5732 13.4229 17.9917 12.8167 18.3004C12.2475 18.5903 11.593 18.8558 10.9975 18.8558C10.402 18.8558 9.74747 18.5903 9.17827 18.3004C8.57208 17.9917 7.90974 17.5732 7.25503 17.1197C5.54091 15.9322 3.75066 14.4707 2.38204 12.7488C1.01106 11.0239 0.0214844 8.98325 0.0214844 6.66277ZM6.48165 2.54859C3.87344 2.54859 1.90309 4.4667 1.90309 6.66277C1.90309 8.42332 2.65044 10.0625 3.85505 11.578C5.06202 13.0966 6.68602 14.4365 8.32655 15.573C8.94732 16.003 9.53203 16.369 10.0322 16.6237C10.5693 16.8972 10.8804 16.9742 10.9975 16.9742C11.1146 16.9742 11.4257 16.8972 11.9628 16.6237C12.463 16.369 13.0477 16.003 13.6684 15.573C15.309 14.4365 16.933 13.0966 18.1399 11.578C19.3445 10.0625 20.0919 8.42332 20.0919 6.66277C20.0919 4.4667 18.1215 2.54859 15.5133 2.54859C14.0154 2.54859 12.6167 3.44351 11.7433 4.57937C11.5652 4.81098 11.2896 4.94671 10.9975 4.94671C10.7053 4.94671 10.4298 4.81098 10.2517 4.57937C9.37831 3.44351 7.97959 2.54859 6.48165 2.54859Z"/></symbol><symbol viewBox="0 0 22 21" id="in" xmlns="http://www.w3.org/2000/svg"><path fill-rule="evenodd" clip-rule="evenodd" d="M21.6325 12.4811V20.3602H17.0315V12.9987C17.0315 11.1583 16.3989 9.89304 14.731 9.89304C13.4658 9.89304 12.7181 10.7557 12.373 11.5609C12.258 11.8484 12.2005 12.251 12.2005 12.6536V20.3602H7.59952C7.59952 20.3602 7.65703 7.88013 7.59952 6.61487H12.2005V8.57027C12.2005 8.57027 12.2005 8.62777 12.143 8.62777H12.2005V8.57027C12.8331 7.65008 13.8684 6.26979 16.3414 6.26979C19.332 6.26979 21.6325 8.28271 21.6325 12.4811ZM2.88298 0.000976562C1.33014 0.000976562 0.294922 1.03619 0.294922 2.35897C0.294922 3.68174 1.27263 4.71697 2.82546 4.71697H2.88298C4.49333 4.71697 5.47103 3.68175 5.47103 2.35897C5.41352 1.03619 4.43581 0.000976562 2.88298 0.000976562ZM0.525568 20.3602H5.06905V6.61489H0.525568V20.3602Z"/></symbol><symbol viewBox="0 0 22 22" id="inst" xmlns="http://www.w3.org/2000/svg"><path fill-rule="evenodd" clip-rule="evenodd" d="M10.7721 0C12.1916 0.0506994 13.6618 0.0506994 15.0812 0.101392C16.3486 0.152085 17.5146 0.354867 18.6299 1.0139C20.0494 1.87572 20.9112 3.14309 21.2154 4.76533C21.3674 5.72853 21.4181 6.74243 21.4688 7.70564C21.5195 9.83483 21.4688 11.964 21.4688 14.0932C21.4688 15.2085 21.4181 16.3238 21.0633 17.3884C20.3535 19.4669 18.8834 20.7342 16.7542 21.1398C15.791 21.3426 14.7771 21.3426 13.8139 21.3933C11.6846 21.444 9.60615 21.3933 7.47694 21.3933C6.36165 21.3933 5.24635 21.3426 4.18176 20.9877C2.10325 20.278 0.835867 18.8078 0.430303 16.6786C0.227525 15.7154 0.227525 14.7015 0.176829 13.7383C0.126131 11.6091 0.176829 9.47996 0.176829 7.35077C0.176829 6.23549 0.227525 5.1202 0.582391 4.05559C1.29213 1.9771 2.76229 0.709734 4.89148 0.304173C5.8547 0.101399 6.8686 0.101399 7.83181 0.0506994C8.79502 0 9.75823 0 10.7721 0ZM19.5426 10.4939C19.4919 10.4939 19.5426 10.4939 19.5426 10.4939C19.4919 9.6321 19.4919 8.82097 19.4919 7.95916C19.4919 7.14805 19.4412 6.33692 19.3398 5.52581C19.137 3.70078 18.0724 2.4841 16.2981 2.12924C15.3855 1.92646 14.3716 1.92646 13.4591 1.92646C11.6341 1.87577 9.85976 1.87577 8.03473 1.92646C7.12222 1.92646 6.2097 1.97715 5.34788 2.12924C3.82702 2.38271 2.76243 3.24453 2.30617 4.76538C2.15408 5.27233 2.10339 5.77928 2.05269 6.28623C2.002 8.21264 2.002 10.139 2.002 12.0655C2.002 13.2821 2.05269 14.5495 2.15408 15.7662C2.30617 17.5912 3.42146 18.8586 5.2465 19.1627C6.159 19.3148 7.12222 19.3655 8.08543 19.3655C9.85976 19.4162 11.6341 19.3655 13.4591 19.3655C14.2703 19.3655 15.0814 19.3148 15.8925 19.2134C16.6529 19.1627 17.3627 18.9093 17.971 18.4023C18.9849 17.5912 19.3398 16.5266 19.3905 15.3099C19.4919 13.7891 19.4919 12.1668 19.5426 10.4939Z"/><path fill-rule="evenodd" clip-rule="evenodd" d="M16.2471 10.6962C16.2471 13.7379 13.8137 16.1712 10.772 16.1712C7.73025 16.1712 5.29688 13.7379 5.29688 10.6455C5.29688 7.65453 7.78094 5.22119 10.8227 5.22119C13.8137 5.22119 16.2471 7.65453 16.2471 10.6962ZM10.7719 14.2448C12.6983 14.2448 14.3205 12.6226 14.3205 10.6962C14.3205 8.76976 12.6983 7.14752 10.7719 7.14752C8.79474 7.14752 7.22318 8.76976 7.22318 10.6962C7.17248 12.6226 8.79474 14.2448 10.7719 14.2448Z"/><path d="M17.7184 4.96758C17.7184 5.67731 17.1607 6.28566 16.451 6.28566C15.7413 6.28566 15.1329 5.67731 15.1836 4.96758C15.1836 4.25785 15.7413 3.7002 16.451 3.7002C17.1607 3.7002 17.7184 4.25784 17.7184 4.96758Z"/></symbol><symbol viewBox="0 0 26 26" id="money" xmlns="http://www.w3.org/2000/svg"><path d="M17.8963 22.2331H7.42572C4.28455 22.2331 2.19043 20.6625 2.19043 16.9978V9.6684C2.19043 6.00369 4.28455 4.43311 7.42572 4.43311H17.8963C21.0375 4.43311 23.1316 6.00369 23.1316 9.6684V16.9978C23.1316 20.6625 21.0375 22.2331 17.8963 22.2331Z" stroke-width="1.57059" stroke-miterlimit="10" stroke-linecap="round" stroke-linejoin="round"/><path d="M12.6617 16.4738C14.3965 16.4738 15.8029 15.0674 15.8029 13.3326C15.8029 11.5978 14.3965 10.1914 12.6617 10.1914C10.9269 10.1914 9.52051 11.5978 9.52051 13.3326C9.52051 15.0674 10.9269 16.4738 12.6617 16.4738Z" stroke-width="1.57059" stroke-miterlimit="10" stroke-linecap="round" stroke-linejoin="round"/><path d="M5.85645 10.7153V15.9506" stroke-width="1.57059" stroke-miterlimit="10" stroke-linecap="round" stroke-linejoin="round"/><path d="M19.4668 10.7153V15.9506" stroke-width="1.57059" stroke-miterlimit="10" stroke-linecap="round" stroke-linejoin="round"/></symbol><symbol viewBox="0 0 59 45" id="quote" xmlns="http://www.w3.org/2000/svg"><path fill-rule="evenodd" clip-rule="evenodd" d="M36.797 44.2511C33.6916 38.2474 32.139 31.7262 32.139 24.6874C32.139 17.5452 34.0281 11.645 37.8062 6.98701C41.5844 2.32901 47.4586 0 55.429 0V9.78182C52.6342 9.78182 50.5898 10.4029 49.2959 11.645C48.002 12.8872 47.3551 15.2679 47.3551 18.7873V20.34H58.6896V44.2511H36.797ZM4.65799 44.2513C1.55267 38.2477 0 31.7264 0 24.6877C0 17.5454 1.88908 11.6452 5.66723 6.98723C9.44538 2.32923 15.3196 0.000219731 23.29 0.000219731V9.78204C20.4952 9.78204 18.4508 10.4031 17.157 11.6452C15.8631 12.8874 15.2161 15.2681 15.2161 18.7875V20.3402H26.5506V44.2513H4.65799Z"/></symbol><symbol viewBox="0 0 16 16" id="star" xmlns="http://www.w3.org/2000/svg"><path d="M6.95816 0.741543C7.27942 -0.247181 8.6782 -0.247181 8.99945 0.741543L10.1473 4.2742C10.291 4.71637 10.703 5.01575 11.1679 5.01575H14.8824C15.922 5.01575 16.3542 6.34607 15.5132 6.95713L12.5081 9.14044C12.132 9.41371 11.9746 9.89811 12.1183 10.3403L13.2661 13.8729C13.5874 14.8617 12.4557 15.6838 11.6147 15.0728L8.6096 12.8895C8.23347 12.6162 7.72415 12.6162 7.34801 12.8895L4.34295 15.0728C3.5019 15.6838 2.37026 14.8617 2.69151 13.8729L3.83935 10.3403C3.98302 9.89811 3.82563 9.41371 3.44949 9.14044L0.444434 6.95713C-0.396625 6.34607 0.0356224 5.01575 1.07523 5.01575H4.78969C5.25461 5.01575 5.66666 4.71637 5.81033 4.2742L6.95816 0.741543Z"/></symbol><symbol viewBox="0 0 26 27" id="star-purple" xmlns="http://www.w3.org/2000/svg"><path d="M15.9993 21.687C17.7033 22.6197 19.2019 21.4893 18.876 19.511L18.2909 15.9589L20.7696 13.4433C22.1482 12.0443 21.5786 10.2111 19.6708 9.92245L16.2453 9.40421L14.7209 6.18842C13.867 4.38709 12.013 4.36771 11.1575 6.17244L9.62555 9.40421L6.19999 9.92245C4.29484 10.2107 3.72066 12.0423 5.10119 13.4433L7.57994 15.9589L6.99479 19.511C6.66935 21.4865 8.16507 22.621 9.87149 21.687L12.9354 20.01L15.9993 21.687Z"/><mask id="kmask0_1_16751" style="mask-type:luminance" maskUnits="userSpaceOnUse" x="4" y="4" width="18" height="19"><path d="M15.9993 21.687C17.7033 22.6197 19.2019 21.4893 18.876 19.511L18.2909 15.9589L20.7696 13.4433C22.1482 12.0443 21.5786 10.2111 19.6708 9.92245L16.2453 9.40421L14.7209 6.18842C13.867 4.38709 12.013 4.36771 11.1575 6.17244L9.62555 9.40421L6.19999 9.92245C4.29484 10.2107 3.72066 12.0423 5.10119 13.4433L7.57994 15.9589L6.99479 19.511C6.66935 21.4865 8.16507 22.621 9.87149 21.687L12.9354 20.01L15.9993 21.687Z"/></mask><g mask="url(#kmask0_1_16751)"/></symbol><symbol viewBox="0 0 22 19" id="twitter" xmlns="http://www.w3.org/2000/svg"><path fill-rule="evenodd" clip-rule="evenodd" d="M21.6154 2.82596C20.8121 3.1774 20.0088 3.42842 19.1052 3.52883C20.0088 2.97658 20.7117 2.1231 21.0129 1.11901C20.1595 1.62106 19.2056 1.97249 18.2517 2.1733C17.4484 1.31982 16.2937 0.767578 15.0386 0.767578C12.6287 0.767578 10.6707 2.72555 10.6707 5.13537C10.6707 5.48681 10.7209 5.83823 10.7711 6.13947C7.10619 5.93865 3.89307 4.23169 1.73426 1.57085C1.33262 2.22351 1.1318 2.97658 1.1318 3.77985C1.1318 5.28599 1.88488 6.64151 3.08979 7.44478C2.38692 7.44478 1.68406 7.24397 1.0816 6.89253V6.94273C1.0816 9.05133 2.58774 10.8587 4.59594 11.2603C4.2445 11.3607 3.84287 11.4109 3.44122 11.4109C3.14 11.4109 2.88897 11.3607 2.63795 11.3105C3.1902 13.0677 4.79676 14.3228 6.75475 14.373C5.2486 15.5277 3.39102 16.2306 1.33262 16.2306C0.981189 16.2306 0.629757 16.2306 0.27832 16.1804C2.23631 17.4355 4.49553 18.1383 7.00577 18.1383C15.0888 18.1383 19.4566 11.4611 19.4566 5.68762C19.4566 5.48681 19.4566 5.28599 19.4566 5.13537C20.3101 4.48272 21.0631 3.67944 21.6154 2.82596Z"/></symbol><symbol viewBox="0 0 26 26" id="wallet" xmlns="http://www.w3.org/2000/svg"><path d="M13.3524 2.77494L13.321 2.84823L10.2845 9.89494H7.30039C6.58839 9.89494 5.9078 10.0415 5.29004 10.3033L7.12239 5.92659L7.16427 5.82188L7.23757 5.65435C7.25851 5.59153 7.27945 5.52871 7.31086 5.47635C8.68251 2.30376 10.2322 1.58129 13.3524 2.77494Z" stroke-width="1.57059" stroke-linecap="round" stroke-linejoin="round"/><path d="M18.9957 10.1043C18.5245 9.95773 18.0219 9.8949 17.5194 9.8949H10.2842L13.3206 2.8482L13.3521 2.7749C13.5091 2.82726 13.6557 2.90055 13.8128 2.96337L16.1268 3.93714C17.4147 4.47114 18.3151 5.02608 18.8596 5.6962C18.9643 5.82184 19.0481 5.93702 19.1214 6.07314C19.2156 6.21973 19.2889 6.36631 19.3308 6.52337C19.3727 6.61761 19.4041 6.71184 19.425 6.79561C19.7077 7.67514 19.5402 8.75361 18.9957 10.1043Z" stroke-width="1.57059" stroke-linecap="round" stroke-linejoin="round"/><path d="M22.6303 15.0052V17.0469C22.6303 17.2563 22.6198 17.4657 22.6093 17.6752C22.4104 21.3294 20.3686 23.1722 16.4945 23.1722H8.32744C8.07615 23.1722 7.82485 23.1513 7.58403 23.1199C4.25438 22.9 2.47438 21.12 2.2545 17.7903C2.22309 17.5495 2.20215 17.2982 2.20215 17.0469V15.0052C2.20215 12.9006 3.47956 11.0892 5.30144 10.3039C5.92968 10.0421 6.5998 9.89551 7.3118 9.89551H17.5311C18.0441 9.89551 18.5467 9.9688 19.0074 10.1049C21.0911 10.7436 22.6303 12.6912 22.6303 15.0052Z" stroke-width="1.57059" stroke-linecap="round" stroke-linejoin="round"/><path d="M7.12208 5.92676L5.28972 10.3035C3.46784 11.0888 2.19043 12.9002 2.19043 15.0048V11.9369C2.19043 8.96323 4.30549 6.4817 7.12208 5.92676Z" stroke-width="1.57059" stroke-linecap="round" stroke-linejoin="round"/><path d="M22.6277 11.9358V15.0036C22.6277 12.7001 21.099 10.7421 19.0049 10.1139C19.5494 8.7527 19.7064 7.6847 19.4446 6.7947C19.4237 6.70046 19.3923 6.60623 19.3504 6.52246C21.2979 7.52764 22.6277 9.59034 22.6277 11.9358Z" stroke-width="1.57059" stroke-linecap="round" stroke-linejoin="round"/></symbol></svg>