<?xml version="1.0" encoding="utf-8"?><svg xmlns="http://www.w3.org/2000/svg" xmlns:xlink="http://www.w3.org/1999/xlink"><symbol viewBox="0 0 16 16" id="add" xmlns="http://www.w3.org/2000/svg">
    <mask id="apath-1-inside-1_1_16678">
        <path d="M15.2818 9.36025H8.94222V15.7891H6.41234V9.36025H0.102539V7.06848H6.41234V0.609863H8.94222V7.06848H15.2818V9.36025Z"/>
    </mask>
    <path d="M15.2818 9.36025H8.94222V15.7891H6.41234V9.36025H0.102539V7.06848H6.41234V0.609863H8.94222V7.06848H15.2818V9.36025Z"/>
    <path d="M15.2818 9.36025V13.4693H19.3908V9.36025H15.2818ZM8.94222 9.36025V5.2512H4.83317V9.36025H8.94222ZM8.94222 15.7891V19.8982H13.0513V15.7891H8.94222ZM6.41234 15.7891H2.30329V19.8982H6.41234V15.7891ZM6.41234 9.36025H10.5214V5.2512H6.41234V9.36025ZM0.102539 9.36025H-4.00651V13.4693H0.102539V9.36025ZM0.102539 7.06848V2.95943H-4.00651V7.06848H0.102539ZM6.41234 7.06848V11.1775H10.5214V7.06848H6.41234ZM6.41234 0.609863V-3.49919H2.30329V0.609863H6.41234ZM8.94222 0.609863H13.0513V-3.49919H8.94222V0.609863ZM8.94222 7.06848H4.83317V11.1775H8.94222V7.06848ZM15.2818 7.06848H19.3908V2.95943H15.2818V7.06848ZM15.2818 5.2512H8.94222V13.4693H15.2818V5.2512ZM4.83317 9.36025V15.7891H13.0513V9.36025H4.83317ZM8.94222 11.6801H6.41234V19.8982H8.94222V11.6801ZM10.5214 15.7891V9.36025H2.30329V15.7891H10.5214ZM6.41234 5.2512H0.102539V13.4693H6.41234V5.2512ZM4.21159 9.36025V7.06848H-4.00651V9.36025H4.21159ZM0.102539 11.1775H6.41234V2.95943H0.102539V11.1775ZM10.5214 7.06848V0.609863H2.30329V7.06848H10.5214ZM6.41234 4.71891H8.94222V-3.49919H6.41234V4.71891ZM4.83317 0.609863V7.06848H13.0513V0.609863H4.83317ZM8.94222 11.1775H15.2818V2.95943H8.94222V11.1775ZM11.1727 7.06848V9.36025H19.3908V7.06848H11.1727Z" mask="url(#apath-1-inside-1_1_16678)"/>
</symbol><symbol viewBox="0 0 16 9" id="arrow-down" xmlns="http://www.w3.org/2000/svg">
    <path d="M1.4209 1.25293L7.70325 7.53528L13.9856 1.25293" stroke-width="2.35588" stroke-linecap="round" stroke-linejoin="round"/>
</symbol><symbol viewBox="0 0 28 28" id="arrow-right" xmlns="http://www.w3.org/2000/svg">
    <path d="M6.55469 13.5469H22.3588" stroke-width="2.25773" stroke-linecap="round" stroke-linejoin="round"/>
    <path d="M14.4561 5.64453L22.3581 13.5466L14.4561 21.4487" stroke-width="2.25773" stroke-linecap="round" stroke-linejoin="round"/>
</symbol><symbol viewBox="0 0 16 21" id="book-mark" xmlns="http://www.w3.org/2000/svg">
    <path d="M12.6161 0.88436C9.71458 0.397922 6.73665 0.397922 3.83508 0.88436C2.77504 1.06207 1.93085 1.87587 1.71831 2.93105C0.744596 7.76505 0.691467 12.7393 1.56171 17.593L1.91601 19.5691C2.02526 20.1785 2.7681 20.422 3.21691 19.9957L7.49357 15.9328C7.9038 15.5431 8.54743 15.5431 8.95766 15.9328L13.2343 19.9957C13.6831 20.422 14.426 20.1785 14.5352 19.5691L14.8895 17.593C15.7598 12.7393 15.7066 7.76505 14.7329 2.93105C14.5204 1.87587 13.6762 1.06207 12.6161 0.88436Z"/>
</symbol><symbol viewBox="0 0 22 19" id="heart" xmlns="http://www.w3.org/2000/svg">
    <path fill-rule="evenodd" clip-rule="evenodd" d="M0.0214844 6.66277C0.0214844 3.27527 2.99334 0.666992 6.48165 0.666992C8.2798 0.666992 9.86206 1.51012 10.9975 2.60107C12.1329 1.51012 13.7152 0.666992 15.5133 0.666992C19.0016 0.666992 21.9735 3.27527 21.9735 6.66277C21.9735 8.98325 20.9839 11.0239 19.6129 12.7488C18.2443 14.4707 16.4541 15.9322 14.74 17.1197C14.0852 17.5732 13.4229 17.9917 12.8167 18.3004C12.2475 18.5903 11.593 18.8558 10.9975 18.8558C10.402 18.8558 9.74747 18.5903 9.17827 18.3004C8.57208 17.9917 7.90974 17.5732 7.25503 17.1197C5.54091 15.9322 3.75066 14.4707 2.38204 12.7488C1.01106 11.0239 0.0214844 8.98325 0.0214844 6.66277ZM6.48165 2.54859C3.87344 2.54859 1.90309 4.4667 1.90309 6.66277C1.90309 8.42332 2.65044 10.0625 3.85505 11.578C5.06202 13.0966 6.68602 14.4365 8.32655 15.573C8.94732 16.003 9.53203 16.369 10.0322 16.6237C10.5693 16.8972 10.8804 16.9742 10.9975 16.9742C11.1146 16.9742 11.4257 16.8972 11.9628 16.6237C12.463 16.369 13.0477 16.003 13.6684 15.573C15.309 14.4365 16.933 13.0966 18.1399 11.578C19.3445 10.0625 20.0919 8.42332 20.0919 6.66277C20.0919 4.4667 18.1215 2.54859 15.5133 2.54859C14.0154 2.54859 12.6167 3.44351 11.7433 4.57937C11.5652 4.81098 11.2896 4.94671 10.9975 4.94671C10.7053 4.94671 10.4298 4.81098 10.2517 4.57937C9.37831 3.44351 7.97959 2.54859 6.48165 2.54859Z"/>
</symbol><symbol viewBox="0 0 26 26" id="money" xmlns="http://www.w3.org/2000/svg">
    <path d="M17.8963 22.2331H7.42572C4.28455 22.2331 2.19043 20.6625 2.19043 16.9978V9.6684C2.19043 6.00369 4.28455 4.43311 7.42572 4.43311H17.8963C21.0375 4.43311 23.1316 6.00369 23.1316 9.6684V16.9978C23.1316 20.6625 21.0375 22.2331 17.8963 22.2331Z" stroke-width="1.57059" stroke-miterlimit="10" stroke-linecap="round" stroke-linejoin="round"/>
    <path d="M12.6617 16.4738C14.3965 16.4738 15.8029 15.0674 15.8029 13.3326C15.8029 11.5978 14.3965 10.1914 12.6617 10.1914C10.9269 10.1914 9.52051 11.5978 9.52051 13.3326C9.52051 15.0674 10.9269 16.4738 12.6617 16.4738Z" stroke-width="1.57059" stroke-miterlimit="10" stroke-linecap="round" stroke-linejoin="round"/>
    <path d="M5.85645 10.7153V15.9506" stroke-width="1.57059" stroke-miterlimit="10" stroke-linecap="round" stroke-linejoin="round"/>
    <path d="M19.4668 10.7153V15.9506" stroke-width="1.57059" stroke-miterlimit="10" stroke-linecap="round" stroke-linejoin="round"/>
</symbol><symbol viewBox="0 0 16 16" id="star" xmlns="http://www.w3.org/2000/svg">
    <path d="M6.95816 0.741543C7.27942 -0.247181 8.6782 -0.247181 8.99945 0.741543L10.1473 4.2742C10.291 4.71637 10.703 5.01575 11.1679 5.01575H14.8824C15.922 5.01575 16.3542 6.34607 15.5132 6.95713L12.5081 9.14044C12.132 9.41371 11.9746 9.89811 12.1183 10.3403L13.2661 13.8729C13.5874 14.8617 12.4557 15.6838 11.6147 15.0728L8.6096 12.8895C8.23347 12.6162 7.72415 12.6162 7.34801 12.8895L4.34295 15.0728C3.5019 15.6838 2.37026 14.8617 2.69151 13.8729L3.83935 10.3403C3.98302 9.89811 3.82563 9.41371 3.44949 9.14044L0.444434 6.95713C-0.396625 6.34607 0.0356224 5.01575 1.07523 5.01575H4.78969C5.25461 5.01575 5.66666 4.71637 5.81033 4.2742L6.95816 0.741543Z"/>
</symbol><symbol viewBox="0 0 26 27" id="star-purple" xmlns="http://www.w3.org/2000/svg">
    <path d="M15.9993 21.687C17.7033 22.6197 19.2019 21.4893 18.876 19.511L18.2909 15.9589L20.7696 13.4433C22.1482 12.0443 21.5786 10.2111 19.6708 9.92245L16.2453 9.40421L14.7209 6.18842C13.867 4.38709 12.013 4.36771 11.1575 6.17244L9.62555 9.40421L6.19999 9.92245C4.29484 10.2107 3.72066 12.0423 5.10119 13.4433L7.57994 15.9589L6.99479 19.511C6.66935 21.4865 8.16507 22.621 9.87149 21.687L12.9354 20.01L15.9993 21.687Z"/>
    <mask id="gmask0_1_16751" style="mask-type:luminance" maskUnits="userSpaceOnUse" x="4" y="4" width="18" height="19">
        <path d="M15.9993 21.687C17.7033 22.6197 19.2019 21.4893 18.876 19.511L18.2909 15.9589L20.7696 13.4433C22.1482 12.0443 21.5786 10.2111 19.6708 9.92245L16.2453 9.40421L14.7209 6.18842C13.867 4.38709 12.013 4.36771 11.1575 6.17244L9.62555 9.40421L6.19999 9.92245C4.29484 10.2107 3.72066 12.0423 5.10119 13.4433L7.57994 15.9589L6.99479 19.511C6.66935 21.4865 8.16507 22.621 9.87149 21.687L12.9354 20.01L15.9993 21.687Z"/>
    </mask>
    <g mask="url(#gmask0_1_16751)"/>
</symbol><symbol viewBox="0 0 26 26" id="wallet" xmlns="http://www.w3.org/2000/svg">
    <path d="M13.3524 2.77494L13.321 2.84823L10.2845 9.89494H7.30039C6.58839 9.89494 5.9078 10.0415 5.29004 10.3033L7.12239 5.92659L7.16427 5.82188L7.23757 5.65435C7.25851 5.59153 7.27945 5.52871 7.31086 5.47635C8.68251 2.30376 10.2322 1.58129 13.3524 2.77494Z" stroke-width="1.57059" stroke-linecap="round" stroke-linejoin="round"/>
    <path d="M18.9957 10.1043C18.5245 9.95773 18.0219 9.8949 17.5194 9.8949H10.2842L13.3206 2.8482L13.3521 2.7749C13.5091 2.82726 13.6557 2.90055 13.8128 2.96337L16.1268 3.93714C17.4147 4.47114 18.3151 5.02608 18.8596 5.6962C18.9643 5.82184 19.0481 5.93702 19.1214 6.07314C19.2156 6.21973 19.2889 6.36631 19.3308 6.52337C19.3727 6.61761 19.4041 6.71184 19.425 6.79561C19.7077 7.67514 19.5402 8.75361 18.9957 10.1043Z" stroke-width="1.57059" stroke-linecap="round" stroke-linejoin="round"/>
    <path d="M22.6303 15.0052V17.0469C22.6303 17.2563 22.6198 17.4657 22.6093 17.6752C22.4104 21.3294 20.3686 23.1722 16.4945 23.1722H8.32744C8.07615 23.1722 7.82485 23.1513 7.58403 23.1199C4.25438 22.9 2.47438 21.12 2.2545 17.7903C2.22309 17.5495 2.20215 17.2982 2.20215 17.0469V15.0052C2.20215 12.9006 3.47956 11.0892 5.30144 10.3039C5.92968 10.0421 6.5998 9.89551 7.3118 9.89551H17.5311C18.0441 9.89551 18.5467 9.9688 19.0074 10.1049C21.0911 10.7436 22.6303 12.6912 22.6303 15.0052Z" stroke-width="1.57059" stroke-linecap="round" stroke-linejoin="round"/>
    <path d="M7.12208 5.92676L5.28972 10.3035C3.46784 11.0888 2.19043 12.9002 2.19043 15.0048V11.9369C2.19043 8.96323 4.30549 6.4817 7.12208 5.92676Z" stroke-width="1.57059" stroke-linecap="round" stroke-linejoin="round"/>
    <path d="M22.6277 11.9358V15.0036C22.6277 12.7001 21.099 10.7421 19.0049 10.1139C19.5494 8.7527 19.7064 7.6847 19.4446 6.7947C19.4237 6.70046 19.3923 6.60623 19.3504 6.52246C21.2979 7.52764 22.6277 9.59034 22.6277 11.9358Z" stroke-width="1.57059" stroke-linecap="round" stroke-linejoin="round"/>
</symbol></svg>