<?xml version="1.0" encoding="utf-8"?><svg viewBox="0 0 28 28" xmlns="http://www.w3.org/2000/svg" xmlns:xlink="http://www.w3.org/1999/xlink"><style>:root>svg{display:none}:root>svg:target{display:block}</style><svg fill="none" viewBox="0 0 16 16" id="add" xmlns="http://www.w3.org/2000/svg">
    <mask id="aa" fill="#fff">
        <path d="M15.282 9.36h-6.34v6.43h-2.53V9.36H.102V7.068h6.31V.61h2.53v6.458h6.34V9.36Z"/>
    </mask>
    <path d="M15.282 9.36h-6.34v6.43h-2.53V9.36H.102V7.068h6.31V.61h2.53v6.458h6.34V9.36Z" fill="#000"/>
    <path d="M15.282 9.36v4.11h4.109V9.36h-4.11Zm-6.34 0V5.251H4.833v4.11h4.11Zm0 6.43v4.108h4.11V15.79h-4.11Zm-2.53 0H2.303v4.108h4.11V15.79Zm0-6.43h4.11V5.251h-4.11v4.11Zm-6.31 0h-4.109v4.11h4.11V9.36Zm0-2.292V2.96h-4.109v4.11h4.11Zm6.31 0v4.11h4.11v-4.11h-4.11Zm0-6.458V-3.5H2.303V.61h4.11Zm2.53 0h4.11V-3.5h-4.11V.61Zm0 6.458H4.833v4.11h4.11v-4.11Zm6.34 0h4.109V2.96h-4.11v4.11Zm0-1.817h-6.34v8.218h6.34V5.251ZM4.833 9.361v6.428h8.218V9.36H4.833Zm4.11 2.32h-2.53v8.217h2.53V11.68Zm1.578 4.108V9.36H2.303v6.43h8.218ZM6.412 5.251H.102v8.218h6.31V5.251Zm-2.2 4.11V7.067h-8.219V9.36h8.219Zm-4.11 1.816h6.31V2.96H.102v8.219Zm10.42-4.109V.61H2.302v6.458h8.218Zm-4.11-2.35h2.53v-8.217h-2.53v8.218ZM4.833.61v6.458h8.218V.61H4.833Zm4.11 10.568h6.339V2.959h-6.34v8.219Zm2.23-4.11V9.36h8.218V7.068h-8.218Z" fill="#fff" mask="url(#aa)"/>
</svg><svg fill="none" viewBox="0 0 16 9" id="arrow-down" xmlns="http://www.w3.org/2000/svg">
    <path d="m1.42 1.253 6.283 6.282 6.283-6.282" stroke="#1A202C" stroke-width="2.356" stroke-linecap="round" stroke-linejoin="round"/>
</svg><svg fill="none" viewBox="0 0 28 28" id="arrow-right" xmlns="http://www.w3.org/2000/svg">
    <path d="M6.555 13.547h15.804M14.456 5.645l7.902 7.902-7.902 7.902" stroke="#fff" stroke-width="2.258" stroke-linecap="round" stroke-linejoin="round"/>
</svg><svg fill="none" viewBox="0 0 16 21" id="book-mark" xmlns="http://www.w3.org/2000/svg">
    <path d="M12.616.884a26.601 26.601 0 0 0-8.78 0 2.598 2.598 0 0 0-2.118 2.047 39.209 39.209 0 0 0-.156 14.662l.354 1.976c.11.61.852.853 1.3.427l4.278-4.063c.41-.39 1.053-.39 1.464 0l4.276 4.063a.778.778 0 0 0 1.301-.427l.354-1.976c.87-4.854.818-9.828-.156-14.662A2.598 2.598 0 0 0 12.616.884Z" fill="#6C5FBC"/>
</svg><svg fill="none" viewBox="0 0 22 19" id="heart" xmlns="http://www.w3.org/2000/svg">
    <path fill-rule="evenodd" clip-rule="evenodd" d="M.021 6.663c0-3.388 2.972-5.996 6.46-5.996 1.799 0 3.381.843 4.517 1.934 1.135-1.09 2.717-1.934 4.515-1.934 3.489 0 6.46 2.608 6.46 5.996 0 2.32-.99 4.36-2.36 6.086-1.369 1.722-3.159 3.183-4.873 4.37-.655.454-1.317.873-1.923 1.181-.57.29-1.224.556-1.82.556-.595 0-1.25-.266-1.819-.556-.606-.308-1.268-.727-1.923-1.18-1.714-1.188-3.504-2.65-4.873-4.371-1.37-1.725-2.36-3.766-2.36-6.086Zm6.46-4.114c-2.608 0-4.578 1.918-4.578 4.114 0 1.76.747 3.4 1.952 4.915 1.207 1.519 2.831 2.859 4.472 3.995.62.43 1.205.796 1.705 1.05.537.274.848.351.966.351.117 0 .428-.077.965-.35.5-.255 1.085-.621 1.705-1.051 1.641-1.136 3.265-2.476 4.472-3.995 1.204-1.515 1.952-3.155 1.952-4.915 0-2.196-1.97-4.114-4.579-4.114-1.498 0-2.896.895-3.77 2.03a.94.94 0 0 1-1.491 0c-.874-1.135-2.272-2.03-3.77-2.03Z" fill="#323142"/>
</svg><svg fill="none" viewBox="0 0 26 26" id="money" xmlns="http://www.w3.org/2000/svg">
    <path d="M17.896 22.233H7.426c-3.141 0-5.236-1.57-5.236-5.235v-7.33c0-3.664 2.095-5.235 5.236-5.235h10.47c3.142 0 5.236 1.57 5.236 5.235v7.33c0 3.665-2.095 5.235-5.236 5.235Z" stroke="#22C55E" stroke-width="1.571" stroke-miterlimit="10" stroke-linecap="round" stroke-linejoin="round"/>
    <path d="M12.662 16.474a3.141 3.141 0 1 0 0-6.283 3.141 3.141 0 0 0 0 6.283ZM5.856 10.715v5.236M19.467 10.715v5.236" stroke="#22C55E" stroke-width="1.571" stroke-miterlimit="10" stroke-linecap="round" stroke-linejoin="round"/>
</svg><svg fill="none" viewBox="0 0 16 16" id="star" xmlns="http://www.w3.org/2000/svg">
    <path d="M6.958.742c.321-.99 1.72-.99 2.041 0l1.148 3.532c.144.442.556.742 1.02.742h3.715c1.04 0 1.472 1.33.631 1.941L12.508 9.14a1.073 1.073 0 0 0-.39 1.2l1.148 3.533c.321.989-.81 1.81-1.651 1.2L8.61 12.889a1.073 1.073 0 0 0-1.262 0l-3.005 2.184c-.841.61-1.973-.211-1.651-1.2l1.147-3.533a1.073 1.073 0 0 0-.39-1.2L.444 6.957c-.84-.61-.408-1.941.631-1.941H4.79c.465 0 .877-.3 1.02-.742L6.958.742Z" fill="#F59E0B"/>
</svg><svg fill="none" viewBox="0 0 26 27" id="star-purple" xmlns="http://www.w3.org/2000/svg">
    <path d="M16 21.687c1.703.933 3.202-.198 2.876-2.176l-.585-3.552 2.479-2.516c1.378-1.399.809-3.232-1.1-3.52l-3.425-.519-1.524-3.216c-.854-1.8-2.708-1.82-3.563-.016L9.626 9.404 6.2 9.922c-1.905.289-2.48 2.12-1.099 3.521L7.58 15.96l-.585 3.552c-.326 1.976 1.17 3.11 2.876 2.176l3.064-1.677L16 21.687Z" fill="#6C5FBC"/>
    <mask id="ga" style="mask-type:luminance" maskUnits="userSpaceOnUse" x="4" y="4" width="18" height="19">
        <path d="M16 21.687c1.703.933 3.202-.198 2.876-2.176l-.585-3.552 2.479-2.516c1.378-1.399.809-3.232-1.1-3.52l-3.425-.519-1.524-3.216c-.854-1.8-2.708-1.82-3.563-.016L9.626 9.404 6.2 9.922c-1.905.289-2.48 2.12-1.099 3.521L7.58 15.96l-.585 3.552c-.326 1.976 1.17 3.11 2.876 2.176l3.064-1.677L16 21.687Z" fill="#fff"/>
    </mask>
</svg><svg fill="none" viewBox="0 0 26 26" id="wallet" xmlns="http://www.w3.org/2000/svg">
    <path d="m13.352 2.775-.031.073-3.037 7.047H7.3c-.712 0-1.392.146-2.01.408l1.832-4.376.042-.105.074-.168c.02-.062.041-.125.073-.178 1.372-3.172 2.921-3.895 6.041-2.701Z" stroke="#936DFF" stroke-width="1.571" stroke-linecap="round" stroke-linejoin="round"/>
    <path d="M18.996 10.104a4.985 4.985 0 0 0-1.477-.21h-7.235l3.037-7.046.031-.073c.157.052.304.126.46.188l2.315.974c1.288.534 2.188 1.09 2.733 1.76.104.125.188.24.261.376.095.147.168.293.21.45.042.095.073.189.094.273.283.88.115 1.958-.43 3.308Z" stroke="#936DFF" stroke-width="1.571" stroke-linecap="round" stroke-linejoin="round"/>
    <path d="M22.63 15.005v2.042c0 .21-.01.419-.02.628-.2 3.654-2.241 5.497-6.116 5.497H8.327a5.78 5.78 0 0 1-.743-.052c-3.33-.22-5.11-2-5.33-5.33a5.778 5.778 0 0 1-.052-.743v-2.042a5.124 5.124 0 0 1 3.1-4.701 5.185 5.185 0 0 1 2.01-.408h10.22a5.24 5.24 0 0 1 1.475.209 5.134 5.134 0 0 1 3.623 4.9Z" stroke="#936DFF" stroke-width="1.571" stroke-linecap="round" stroke-linejoin="round"/>
    <path d="M7.122 5.927 5.29 10.304a5.124 5.124 0 0 0-3.1 4.7v-3.067a6.124 6.124 0 0 1 4.932-6.01ZM22.628 11.936v3.068a5.108 5.108 0 0 0-3.623-4.89c.544-1.361.701-2.43.44-3.32a1.193 1.193 0 0 0-.095-.272 6.097 6.097 0 0 1 3.278 5.414Z" stroke="#936DFF" stroke-width="1.571" stroke-linecap="round" stroke-linejoin="round"/>
</svg></svg>