<?xml version="1.0" encoding="utf-8"?><svg viewBox="0 0 169 98" xmlns="http://www.w3.org/2000/svg" xmlns:xlink="http://www.w3.org/1999/xlink"><style>:root>svg{display:none}:root>svg:target{display:block}</style><svg fill="none" viewBox="0 0 28 28" id="arrow-right" xmlns="http://www.w3.org/2000/svg">
    <path d="M6.555 13.547h15.804M14.456 5.645l7.902 7.902-7.902 7.902" stroke="#fff" stroke-width="2.258" stroke-linecap="round" stroke-linejoin="round"/>
</svg><svg fill="none" viewBox="0 0 101 98" id="arrow-spiral01" xmlns="http://www.w3.org/2000/svg">
    <path d="M71.667 10.711c9.136 13.675 14.353 29.303 9.08 45.284-4.76 14.425-17.734 22.97-32.631 12.267-7.053-5.066-11.629-15.29-7.047-22.886 5.105-8.462 16.434-.965 19.507 4.794 7.179 13.451 2.528 31.59-13.264 39.783-18.701 9.704-26.75-8.845-26.602-8.85" stroke="#665AB5" stroke-width="2.65" stroke-miterlimit="1.5" stroke-linecap="round" stroke-linejoin="round"/>
    <path d="M91.026 14.596c-1.925.375-3.81-.003-5.714-.293-6.25-.954-12.642-3.77-16.525-8.411 2.237 5.953 2.898 14.357-1.863 19.399" stroke="#665AB5" stroke-width="2.65" stroke-miterlimit="1.5" stroke-linecap="round" stroke-linejoin="round"/>
</svg><svg fill="none" viewBox="0 0 169 61" id="arrow-spiral02" xmlns="http://www.w3.org/2000/svg">
    <path d="M168.51 6.145a1.326 1.326 0 0 0-2.52-.82l2.52.82ZM134.211 38.14l.206 1.31-.206-1.31Zm-39.278-21.9 1.325-.01-1.325.01Zm11.766-14.234.091 1.322-.091-1.322Zm12.488 10.384-1.246.45 1.246-.45Zm-33.32 35.183.145 1.317-.146-1.317ZM50.09 25.003l1.323-.075-1.323.075Zm8.51-10.965.327 1.284-.326-1.284Zm-25.774 45.23.105-1.321-.105 1.32ZM1.372 39.717l.3-1.29a1.325 1.325 0 0 0-1.55 1.73l1.25-.44Zm11.6 4.063a1.325 1.325 0 0 0 .601-2.58l-.6 2.58Zm-8.606 8.485a1.325 1.325 0 0 0 2.5-.877l-2.5.877ZM167.25 5.735l-1.26-.41-.001.001-.004.012-.018.055-.078.225c-.07.2-.178.5-.325.884-.293.769-.74 1.878-1.35 3.223-1.221 2.693-3.091 6.32-5.683 10.054-5.201 7.497-13.186 15.262-24.527 17.051l.413 2.618c12.365-1.95 20.9-10.387 26.291-18.158 2.705-3.898 4.65-7.672 5.92-10.47.635-1.4 1.102-2.56 1.413-3.374a40.082 40.082 0 0 0 .436-1.204l.023-.069.007-.019.002-.006v-.002l-1.259-.411ZM134.004 36.83c-8.856 1.398-18.357-.234-25.622-4.036-7.283-3.811-12.07-9.644-12.124-16.565l-2.65.02c.065 8.275 5.786 14.833 13.546 18.893 7.778 4.07 17.856 5.79 27.263 4.306l-.413-2.618ZM96.258 16.23c-.016-2.029.824-5.192 2.632-7.902 1.792-2.685 4.414-4.759 7.9-5l-.183-2.644c-4.55.315-7.83 3.039-9.92 6.173-2.075 3.108-3.1 6.784-3.08 9.394l2.65-.021ZM106.79 3.327c3.297-.228 5.657 1.073 7.421 2.957 1.804 1.926 2.971 4.454 3.73 6.555l2.492-.9c-.804-2.228-2.12-5.152-4.288-7.467-2.207-2.356-5.309-4.082-9.538-3.789l.183 2.644Zm11.151 9.512c3.026 8.379-.201 16.116-6.708 22.156-6.529 6.06-16.217 10.234-25.512 11.26l.29 2.634c9.8-1.082 20.036-5.465 27.025-11.952 7.011-6.507 10.897-15.308 7.397-24.998l-2.492.9Zm-32.22 33.416c-7.972.88-16.396-.604-22.897-4.258-6.474-3.639-10.97-9.373-11.411-17.07l-2.646.152c.503 8.796 5.686 15.253 12.759 19.228 7.046 3.96 16.038 5.515 24.486 4.582l-.291-2.634ZM51.413 24.928c-.138-2.414.442-4.455 1.647-6.05 1.207-1.597 3.127-2.86 5.867-3.556l-.653-2.568c-3.2.813-5.688 2.357-7.328 4.527-1.642 2.173-2.347 4.86-2.179 7.798l2.646-.151Zm7.514-9.606c2.505-.637 4.532-.128 6.242 1.103 1.765 1.27 3.257 3.36 4.474 5.959l2.4-1.123c-1.315-2.81-3.05-5.349-5.326-6.987-2.33-1.676-5.159-2.355-8.443-1.52l.653 2.568Zm10.716 7.062c4.074 8.707-.235 17.833-8.343 24.85-8.088 6.998-19.48 11.42-28.369 10.713l-.21 2.641c9.765.778 21.832-4.011 30.313-11.351 8.462-7.323 13.835-17.662 9.009-27.976l-2.4 1.123ZM32.93 57.947c-6.9-.55-14.494-5.21-20.503-9.933a96.754 96.754 0 0 1-9.352-8.424 55.359 55.359 0 0 1-.683-.719l-.034-.036a3.909 3.909 0 0 0-.007-.009l-.002-.001-.978.894-.977.895h.001c0 .002.002.003.003.004l.01.011.04.043.15.16c.13.14.323.343.572.6a99.383 99.383 0 0 0 9.62 8.666c6.057 4.76 14.189 9.874 21.93 10.49l.21-2.641ZM1.071 41.009l11.901 2.772.601-2.58-11.9-2.773-.601 2.581Zm-.95-.852 4.245 12.109 2.5-.877-4.243-12.108-2.501.876Z" fill="#6C5FBC"/>
</svg><svg fill="none" viewBox="0 0 42 28" id="illustration01" xmlns="http://www.w3.org/2000/svg">
    <path d="M3.036 12.884C6.64 9.204 11.059 8.59 15.54 8.177 21.135 7.662 26.827 7.461 31.157 2M1.637 23.229c3.284-4.674 8.061-7.435 13.703-8.058 2.953-.325 5.946-.001 8.88-.559 6.61-1.256 12.749-5.268 15.627-11.473M30.522 19.22c-2.189 1.402-4.563 2.47-7.171 2.777-5.194.61-10.633-.2-14.577 4.003" stroke="#685BB8" stroke-width="2.65" stroke-miterlimit="1.5" stroke-linecap="round" stroke-linejoin="round"/>
</svg><svg fill="none" viewBox="0 0 39 37" id="illustration02" xmlns="http://www.w3.org/2000/svg">
    <path d="M27.338 31.12c2.894-6.47 5.04-13.182 7.634-19.756M7.929 35c7.903-8.457 15.005-17.907 21.532-27.443M1.635 15.836C9.153 13.276 18.547 6.432 25.472 2" stroke="#685BB8" stroke-width="2.65" stroke-miterlimit="1.5" stroke-linecap="round" stroke-linejoin="round"/>
</svg><svg fill="none" viewBox="0 0 56 62" id="illustration03" xmlns="http://www.w3.org/2000/svg">
    <path d="M29.402 8.287C19.996 12.611 11.177 17.921 2 22.65M54.464 22.7c-16.823 1.689-33.722 5.238-50.072 9.436M42.938 49.818c-10.726-4.423-27.635-5.942-39.51-7.737" stroke="#6C5FBC" stroke-width="2.65" stroke-miterlimit="1.5" stroke-linecap="round" stroke-linejoin="round"/>
</svg><svg fill="none" viewBox="0 0 16 16" id="star" xmlns="http://www.w3.org/2000/svg">
    <path d="M6.958.742c.321-.99 1.72-.99 2.041 0l1.148 3.532c.144.442.556.742 1.02.742h3.715c1.04 0 1.472 1.33.631 1.941L12.508 9.14a1.073 1.073 0 0 0-.39 1.2l1.148 3.533c.321.989-.81 1.81-1.651 1.2L8.61 12.889a1.073 1.073 0 0 0-1.262 0l-3.005 2.184c-.841.61-1.973-.211-1.651-1.2l1.147-3.533a1.073 1.073 0 0 0-.39-1.2L.444 6.957c-.84-.61-.408-1.941.631-1.941H4.79c.465 0 .877-.3 1.02-.742L6.958.742Z" fill="#F59E0B"/>
</svg></svg>