<?xml version="1.0" encoding="utf-8"?><svg viewBox="0 0 59 45" xmlns="http://www.w3.org/2000/svg" xmlns:xlink="http://www.w3.org/1999/xlink"><style>:root>svg{display:none}:root>svg:target{display:block}</style><svg fill="none" viewBox="0 0 16 16" id="add" xmlns="http://www.w3.org/2000/svg">
    <mask id="aa" fill="#fff">
        <path d="M15.282 9.36h-6.34v6.43h-2.53V9.36H.102V7.068h6.31V.61h2.53v6.458h6.34V9.36Z"/>
    </mask>
    <path d="M15.282 9.36h-6.34v6.43h-2.53V9.36H.102V7.068h6.31V.61h2.53v6.458h6.34V9.36Z" fill="#000"/>
    <path d="M15.282 9.36v4.11h4.109V9.36h-4.11Zm-6.34 0V5.251H4.833v4.11h4.11Zm0 6.43v4.108h4.11V15.79h-4.11Zm-2.53 0H2.303v4.108h4.11V15.79Zm0-6.43h4.11V5.251h-4.11v4.11Zm-6.31 0h-4.109v4.11h4.11V9.36Zm0-2.292V2.96h-4.109v4.11h4.11Zm6.31 0v4.11h4.11v-4.11h-4.11Zm0-6.458V-3.5H2.303V.61h4.11Zm2.53 0h4.11V-3.5h-4.11V.61Zm0 6.458H4.833v4.11h4.11v-4.11Zm6.34 0h4.109V2.96h-4.11v4.11Zm0-1.817h-6.34v8.218h6.34V5.251ZM4.833 9.361v6.428h8.218V9.36H4.833Zm4.11 2.32h-2.53v8.217h2.53V11.68Zm1.578 4.108V9.36H2.303v6.43h8.218ZM6.412 5.251H.102v8.218h6.31V5.251Zm-2.2 4.11V7.067h-8.219V9.36h8.219Zm-4.11 1.816h6.31V2.96H.102v8.219Zm10.42-4.109V.61H2.302v6.458h8.218Zm-4.11-2.35h2.53v-8.217h-2.53v8.218ZM4.833.61v6.458h8.218V.61H4.833Zm4.11 10.568h6.339V2.959h-6.34v8.219Zm2.23-4.11V9.36h8.218V7.068h-8.218Z" fill="#fff" mask="url(#aa)"/>
</svg><svg fill="none" viewBox="0 0 16 9" id="arrow-down" xmlns="http://www.w3.org/2000/svg">
    <path d="m1.42 1.253 6.283 6.282 6.283-6.282" stroke="#1A202C" stroke-width="2.356" stroke-linecap="round" stroke-linejoin="round"/>
</svg><svg fill="none" viewBox="0 0 28 28" id="arrow-right" xmlns="http://www.w3.org/2000/svg">
    <path d="M6.555 13.547h15.804M14.456 5.645l7.902 7.902-7.902 7.902" stroke="#fff" stroke-width="2.258" stroke-linecap="round" stroke-linejoin="round"/>
</svg><svg fill="none" viewBox="0 0 16 21" id="book-mark" xmlns="http://www.w3.org/2000/svg">
    <path d="M12.616.884a26.601 26.601 0 0 0-8.78 0 2.598 2.598 0 0 0-2.118 2.047 39.209 39.209 0 0 0-.156 14.662l.354 1.976c.11.61.852.853 1.3.427l4.278-4.063c.41-.39 1.053-.39 1.464 0l4.276 4.063a.778.778 0 0 0 1.301-.427l.354-1.976c.87-4.854.818-9.828-.156-14.662A2.598 2.598 0 0 0 12.616.884Z" fill="#6C5FBC"/>
</svg><svg fill="none" viewBox="0 0 11 22" id="facebook" xmlns="http://www.w3.org/2000/svg">
    <path fill-rule="evenodd" clip-rule="evenodd" d="M9.953 10.67H6.972v10.668H2.526V10.67H.435V6.903h2.091V4.446c0-1.726.837-4.445 4.446-4.445h3.294v3.66H7.913c-.366 0-.941.21-.941 1.047v2.196h3.347l-.366 3.765Z" fill="#081420"/>
</svg><svg fill="none" viewBox="0 0 22 19" id="heart" xmlns="http://www.w3.org/2000/svg">
    <path fill-rule="evenodd" clip-rule="evenodd" d="M.021 6.663c0-3.388 2.972-5.996 6.46-5.996 1.799 0 3.381.843 4.517 1.934 1.135-1.09 2.717-1.934 4.515-1.934 3.489 0 6.46 2.608 6.46 5.996 0 2.32-.99 4.36-2.36 6.086-1.369 1.722-3.159 3.183-4.873 4.37-.655.454-1.317.873-1.923 1.181-.57.29-1.224.556-1.82.556-.595 0-1.25-.266-1.819-.556-.606-.308-1.268-.727-1.923-1.18-1.714-1.188-3.504-2.65-4.873-4.371-1.37-1.725-2.36-3.766-2.36-6.086Zm6.46-4.114c-2.608 0-4.578 1.918-4.578 4.114 0 1.76.747 3.4 1.952 4.915 1.207 1.519 2.831 2.859 4.472 3.995.62.43 1.205.796 1.705 1.05.537.274.848.351.966.351.117 0 .428-.077.965-.35.5-.255 1.085-.621 1.705-1.051 1.641-1.136 3.265-2.476 4.472-3.995 1.204-1.515 1.952-3.155 1.952-4.915 0-2.196-1.97-4.114-4.579-4.114-1.498 0-2.896.895-3.77 2.03a.94.94 0 0 1-1.491 0c-.874-1.135-2.272-2.03-3.77-2.03Z" fill="#323142"/>
</svg><svg fill="none" viewBox="0 0 22 21" id="in" xmlns="http://www.w3.org/2000/svg">
    <path fill-rule="evenodd" clip-rule="evenodd" d="M21.633 12.481v7.88h-4.601v-7.362c0-1.84-.633-3.106-2.301-3.106-1.265 0-2.013.863-2.358 1.668-.115.287-.172.69-.172 1.093v7.706H7.6s.057-12.48 0-13.745h4.6V8.57s0 .058-.057.058h.057V8.57c.633-.92 1.668-2.3 4.141-2.3 2.991 0 5.291 2.013 5.291 6.211ZM2.883.001C1.33.001.295 1.036.295 2.359c0 1.323.978 2.358 2.53 2.358h.058c1.61 0 2.588-1.035 2.588-2.358C5.414 1.036 4.436.001 2.883.001ZM.526 20.361h4.543V6.614H.526V20.36Z" fill="#081420"/>
</svg><svg fill="none" viewBox="0 0 22 22" id="inst" xmlns="http://www.w3.org/2000/svg">
    <path fill-rule="evenodd" clip-rule="evenodd" d="M10.772 0c1.42.05 2.89.05 4.31.101 1.267.051 2.433.254 3.548.913 1.42.862 2.281 2.13 2.585 3.751.152.964.203 1.977.254 2.94.05 2.13 0 4.259 0 6.388 0 1.116-.05 2.23-.406 3.295-.71 2.079-2.18 3.346-4.309 3.752-.963.203-1.977.203-2.94.253-2.13.051-4.208 0-6.337 0-1.115 0-2.23-.05-3.295-.405-2.079-.71-3.346-2.18-3.752-4.31-.202-.963-.202-1.977-.253-2.94-.05-2.129 0-4.258 0-6.387 0-1.116.05-2.23.405-3.295.71-2.079 2.18-3.346 4.31-3.752.963-.203 1.977-.203 2.94-.253C8.795 0 9.758 0 10.772 0Zm8.77 10.494c-.05 0 0 0 0 0-.05-.862-.05-1.673-.05-2.535 0-.811-.05-1.622-.152-2.433-.203-1.825-1.268-3.042-3.042-3.397-.912-.203-1.926-.203-2.839-.203-1.825-.05-3.6-.05-5.424 0-.913 0-1.825.051-2.687.203-1.521.254-2.586 1.116-3.042 2.636-.152.507-.203 1.014-.253 1.521-.051 1.927-.051 3.853-.051 5.78 0 1.216.05 2.483.152 3.7.152 1.825 1.267 3.093 3.093 3.397.912.152 1.875.203 2.838.203 1.775.05 3.55 0 5.374 0 .811 0 1.622-.051 2.434-.153.76-.05 1.47-.304 2.078-.81 1.014-.812 1.369-1.876 1.42-3.093.1-1.52.1-3.143.152-4.816Z" fill="#081420"/>
    <path fill-rule="evenodd" clip-rule="evenodd" d="M16.247 10.696a5.452 5.452 0 0 1-5.475 5.475c-3.042 0-5.475-2.433-5.475-5.525 0-2.991 2.484-5.425 5.526-5.425 2.99 0 5.424 2.434 5.424 5.475Zm-5.475 3.549c1.926 0 3.548-1.622 3.548-3.549 0-1.926-1.622-3.548-3.548-3.548-1.977 0-3.549 1.622-3.549 3.548-.05 1.927 1.572 3.549 3.549 3.549Z" fill="#081420"/>
    <path d="M17.718 4.968c0 .71-.557 1.318-1.267 1.318-.71 0-1.318-.609-1.267-1.318 0-.71.557-1.268 1.267-1.268.71 0 1.267.558 1.267 1.268Z" fill="#081420"/>
</svg><svg fill="none" viewBox="0 0 26 26" id="money" xmlns="http://www.w3.org/2000/svg">
    <path d="M17.896 22.233H7.426c-3.141 0-5.236-1.57-5.236-5.235v-7.33c0-3.664 2.095-5.235 5.236-5.235h10.47c3.142 0 5.236 1.57 5.236 5.235v7.33c0 3.665-2.095 5.235-5.236 5.235Z" stroke="#22C55E" stroke-width="1.571" stroke-miterlimit="10" stroke-linecap="round" stroke-linejoin="round"/>
    <path d="M12.662 16.474a3.141 3.141 0 1 0 0-6.283 3.141 3.141 0 0 0 0 6.283ZM5.856 10.715v5.236M19.467 10.715v5.236" stroke="#22C55E" stroke-width="1.571" stroke-miterlimit="10" stroke-linecap="round" stroke-linejoin="round"/>
</svg><svg fill="none" viewBox="0 0 59 45" id="quote" xmlns="http://www.w3.org/2000/svg">
    <path fill-rule="evenodd" clip-rule="evenodd" d="M36.797 44.251c-3.105-6.004-4.658-12.525-4.658-19.564 0-7.142 1.89-13.042 5.667-17.7C41.584 2.329 47.46 0 55.43 0v9.782c-2.795 0-4.84.62-6.133 1.863-1.294 1.242-1.94 3.623-1.94 7.142v1.553H58.69v23.911H36.797Zm-32.139 0C1.553 38.248 0 31.726 0 24.688c0-7.143 1.89-13.043 5.667-17.7C9.445 2.328 15.32 0 23.29 0v9.782c-2.795 0-4.84.621-6.133 1.863-1.294 1.242-1.94 3.623-1.94 7.143v1.552H26.55v23.911H4.658Z" fill="#DADADA"/>
</svg><svg fill="none" viewBox="0 0 16 16" id="star" xmlns="http://www.w3.org/2000/svg">
    <path d="M6.958.742c.321-.99 1.72-.99 2.041 0l1.148 3.532c.144.442.556.742 1.02.742h3.715c1.04 0 1.472 1.33.631 1.941L12.508 9.14a1.073 1.073 0 0 0-.39 1.2l1.148 3.533c.321.989-.81 1.81-1.651 1.2L8.61 12.889a1.073 1.073 0 0 0-1.262 0l-3.005 2.184c-.841.61-1.973-.211-1.651-1.2l1.147-3.533a1.073 1.073 0 0 0-.39-1.2L.444 6.957c-.84-.61-.408-1.941.631-1.941H4.79c.465 0 .877-.3 1.02-.742L6.958.742Z" fill="#F59E0B"/>
</svg><svg fill="none" viewBox="0 0 26 27" id="star-purple" xmlns="http://www.w3.org/2000/svg">
    <path d="M16 21.687c1.703.933 3.202-.198 2.876-2.176l-.585-3.552 2.479-2.516c1.378-1.399.809-3.232-1.1-3.52l-3.425-.519-1.524-3.216c-.854-1.8-2.708-1.82-3.563-.016L9.626 9.404 6.2 9.922c-1.905.289-2.48 2.12-1.099 3.521L7.58 15.96l-.585 3.552c-.326 1.976 1.17 3.11 2.876 2.176l3.064-1.677L16 21.687Z" fill="#6C5FBC"/>
    <mask id="ka" style="mask-type:luminance" maskUnits="userSpaceOnUse" x="4" y="4" width="18" height="19">
        <path d="M16 21.687c1.703.933 3.202-.198 2.876-2.176l-.585-3.552 2.479-2.516c1.378-1.399.809-3.232-1.1-3.52l-3.425-.519-1.524-3.216c-.854-1.8-2.708-1.82-3.563-.016L9.626 9.404 6.2 9.922c-1.905.289-2.48 2.12-1.099 3.521L7.58 15.96l-.585 3.552c-.326 1.976 1.17 3.11 2.876 2.176l3.064-1.677L16 21.687Z" fill="#fff"/>
    </mask>
</svg><svg fill="none" viewBox="0 0 22 19" id="twitter" xmlns="http://www.w3.org/2000/svg">
    <path fill-rule="evenodd" clip-rule="evenodd" d="M21.615 2.826c-.803.351-1.606.602-2.51.703.904-.552 1.607-1.406 1.908-2.41a9.237 9.237 0 0 1-2.761 1.054A4.437 4.437 0 0 0 15.039.768a4.371 4.371 0 0 0-4.368 4.367c0 .352.05.703.1 1.004-3.665-.2-6.878-1.907-9.037-4.568a4.17 4.17 0 0 0-.602 2.209A4.39 4.39 0 0 0 3.09 7.445c-.703 0-1.406-.201-2.008-.552v.05c0 2.108 1.506 3.916 3.514 4.317-.351.1-.753.15-1.155.15-.301 0-.552-.05-.803-.1.552 1.758 2.159 3.013 4.117 3.063-1.506 1.155-3.364 1.858-5.422 1.858-.352 0-.703 0-1.055-.05 1.958 1.255 4.218 1.957 6.728 1.957 8.083 0 12.45-6.677 12.45-12.45v-.553a9.392 9.392 0 0 0 2.16-2.309Z" fill="#6C5FBC"/>
</svg><svg fill="none" viewBox="0 0 26 26" id="wallet" xmlns="http://www.w3.org/2000/svg">
    <path d="m13.352 2.775-.031.073-3.037 7.047H7.3c-.712 0-1.392.146-2.01.408l1.832-4.376.042-.105.074-.168c.02-.062.041-.125.073-.178 1.372-3.172 2.921-3.895 6.041-2.701Z" stroke="#936DFF" stroke-width="1.571" stroke-linecap="round" stroke-linejoin="round"/>
    <path d="M18.996 10.104a4.985 4.985 0 0 0-1.477-.21h-7.235l3.037-7.046.031-.073c.157.052.304.126.46.188l2.315.974c1.288.534 2.188 1.09 2.733 1.76.104.125.188.24.261.376.095.147.168.293.21.45.042.095.073.189.094.273.283.88.115 1.958-.43 3.308Z" stroke="#936DFF" stroke-width="1.571" stroke-linecap="round" stroke-linejoin="round"/>
    <path d="M22.63 15.005v2.042c0 .21-.01.419-.02.628-.2 3.654-2.241 5.497-6.116 5.497H8.327a5.78 5.78 0 0 1-.743-.052c-3.33-.22-5.11-2-5.33-5.33a5.778 5.778 0 0 1-.052-.743v-2.042a5.124 5.124 0 0 1 3.1-4.701 5.185 5.185 0 0 1 2.01-.408h10.22a5.24 5.24 0 0 1 1.475.209 5.134 5.134 0 0 1 3.623 4.9Z" stroke="#936DFF" stroke-width="1.571" stroke-linecap="round" stroke-linejoin="round"/>
    <path d="M7.122 5.927 5.29 10.304a5.124 5.124 0 0 0-3.1 4.7v-3.067a6.124 6.124 0 0 1 4.932-6.01ZM22.628 11.936v3.068a5.108 5.108 0 0 0-3.623-4.89c.544-1.361.701-2.43.44-3.32a1.193 1.193 0 0 0-.095-.272 6.097 6.097 0 0 1 3.278 5.414Z" stroke="#936DFF" stroke-width="1.571" stroke-linecap="round" stroke-linejoin="round"/>
</svg></svg>